<svg data-v-423bf9ae="" xmlns="http://www.w3.org/2000/svg" viewBox="0 0 271.56693298903247 60" class="font"><!----><!----><!----><g data-v-423bf9ae="" id="198c8aee-9515-4ac8-98ff-753de2ae31eb" fill="black" transform="matrix(5.6980053264473165,0,0,5.6980053264473165,-1.9942986984431172,-14.415953074471894)"><path d="M0.76 7.22L0.76 7.22L0.69 4.58Q0.69 3.95 0.55 3.58Q0.41 3.22 0.41 3.19L0.41 3.19Q0.41 2.88 1.35 2.72Q2.30 2.55 2.79 2.55Q3.29 2.55 3.33 2.79L3.33 2.79Q4.21 6.72 4.82 8.25L4.82 8.25Q4.89 8.41 4.96 8.41Q5.04 8.41 5.10 8.29L5.10 8.29Q6.03 5.64 6.75 3.05L6.75 3.05Q6.80 2.88 7.03 2.79Q7.25 2.70 7.81 2.62Q8.36 2.53 8.90 2.53Q9.45 2.53 9.45 2.76L9.45 2.76Q9.45 2.77 9.41 2.97Q9.37 3.18 9.32 3.47Q9.28 3.77 9.23 4.19L9.23 4.19Q9.10 5.15 9.06 6.40Q9.03 7.66 9.03 8.92L9.03 8.92L9.06 10.39Q9.06 11.40 9.19 11.82Q9.32 12.25 9.32 12.31Q9.32 12.38 9.23 12.46L9.23 12.46Q8.79 12.81 7.91 12.81L7.91 12.81Q7.35 12.81 7.28 12.43L7.28 12.43Q7.24 12.24 7.24 11.81Q7.24 11.38 7.32 9.18Q7.41 6.99 7.41 5.98Q7.41 4.98 7.29 4.98L7.29 4.98Q7.28 4.98 7.28 4.99Q7.28 5.00 7.24 5.01Q7.20 5.03 7.02 5.45Q6.85 5.87 6.33 7.52Q5.81 9.17 5.39 10.61Q4.97 12.04 4.93 12.15L4.93 12.15Q4.77 12.53 4.34 12.53L4.34 12.53Q4.13 12.53 4.00 12.38L4.00 12.38Q3.56 10.30 2.41 6.45L2.41 6.45L2.02 5.18Q1.99 5.11 1.96 5.11L1.96 5.11Q1.89 5.11 1.86 5.21L1.86 5.21Q1.81 6.12 1.81 8.79Q1.81 11.45 2.00 12.15L2.00 12.15Q2.02 12.18 2.02 12.24L2.02 12.24Q2.02 12.53 1.55 12.66Q1.09 12.80 0.72 12.80Q0.35 12.80 0.35 12.63L0.35 12.63Q0.35 12.61 0.42 12.40L0.42 12.40Q0.63 11.69 0.69 10.33Q0.76 8.97 0.76 7.22ZM13.31 6.62Q13.90 6.33 14.49 6.33Q15.08 6.33 15.08 7.55L15.08 7.55Q15.08 8.44 14.75 9.37Q14.42 10.29 13.93 10.99L13.93 10.99Q12.92 12.46 12.11 12.95L12.11 12.95Q11.91 13.06 11.82 13.06Q11.72 13.06 11.61 12.85Q11.51 12.64 11.29 11.93Q11.07 11.21 10.93 10.65L10.93 10.65L10.81 10.08Q10.53 8.85 10.26 8.11Q10.00 7.38 9.87 7.27L9.87 7.27L9.73 7.14Q9.59 7.07 9.59 6.97L9.59 6.97L9.66 6.85Q9.84 6.68 10.27 6.50Q10.70 6.33 11.21 6.33L11.21 6.33Q11.45 6.33 11.51 6.59L11.51 6.59Q11.72 7.24 11.87 8.11Q12.03 8.97 12.29 10.07Q12.54 11.16 12.71 11.17L12.71 11.17Q12.80 11.17 12.90 11.05Q13.01 10.92 13.15 10.71Q13.30 10.50 13.52 9.90Q13.73 9.30 13.73 8.87Q13.73 8.44 13.70 8.21Q13.66 7.98 13.45 7.67Q13.24 7.36 12.98 7.31Q12.71 7.27 12.71 7.14L12.71 7.14Q12.71 6.92 13.31 6.62ZM16.90 9.11L16.90 9.11L16.91 9.46Q16.91 9.55 17.02 9.55L17.02 9.55Q17.47 9.51 17.81 9.32Q18.14 9.13 18.31 8.89L18.31 8.89Q18.65 8.37 18.68 7.99L18.68 7.99L18.69 7.83Q18.69 7.07 18.09 7.07L18.09 7.07Q17.64 7.07 17.36 7.46L17.36 7.46Q16.90 8.08 16.90 9.11ZM19.95 10.98L19.95 10.98Q19.95 11.51 19.73 11.91Q19.52 12.31 19.24 12.49Q18.97 12.68 18.61 12.80L18.61 12.80Q18.14 12.94 17.72 12.94L17.72 12.94Q16.55 12.94 15.99 12.05Q15.43 11.17 15.43 9.81Q15.43 8.44 16.12 7.38Q16.81 6.31 18.20 6.31L18.20 6.31Q19.46 6.31 19.91 7.20L19.91 7.20Q20.09 7.53 20.09 7.83Q20.09 8.13 20.06 8.31Q20.03 8.48 19.87 8.83Q19.70 9.18 19.42 9.46Q19.14 9.74 18.54 10.00Q17.93 10.25 17.12 10.33L17.12 10.33Q17.01 10.33 17.01 10.43L17.01 10.43Q17.01 10.56 17.10 10.80Q17.19 11.05 17.30 11.21L17.30 11.21Q17.61 11.61 18.21 11.61L18.21 11.61Q18.82 11.61 19.24 11.21L19.24 11.21Q19.46 11.00 19.60 10.70L19.60 10.70Q19.66 10.58 19.75 10.58Q19.84 10.58 19.89 10.74Q19.95 10.89 19.95 10.98ZM22.05 9.11L22.05 9.11L22.06 9.46Q22.06 9.55 22.18 9.55L22.18 9.55Q22.62 9.51 22.96 9.32Q23.30 9.13 23.46 8.89L23.46 8.89Q23.80 8.37 23.83 7.99L23.83 7.99L23.84 7.83Q23.84 7.07 23.24 7.07L23.24 7.07Q22.79 7.07 22.51 7.46L22.51 7.46Q22.05 8.08 22.05 9.11ZM25.10 10.98L25.10 10.98Q25.10 11.51 24.89 11.91Q24.67 12.31 24.39 12.49Q24.12 12.68 23.76 12.80L23.76 12.80Q23.30 12.94 22.88 12.94L22.88 12.94Q21.70 12.94 21.14 12.05Q20.58 11.17 20.58 9.81Q20.58 8.44 21.27 7.38Q21.97 6.31 23.35 6.31L23.35 6.31Q24.61 6.31 25.06 7.20L25.06 7.20Q25.24 7.53 25.24 7.83Q25.24 8.13 25.21 8.31Q25.19 8.48 25.02 8.83Q24.85 9.18 24.57 9.46Q24.29 9.74 23.69 10.00Q23.09 10.25 22.27 10.33L22.27 10.33Q22.16 10.33 22.16 10.43L22.16 10.43Q22.16 10.56 22.25 10.80Q22.34 11.05 22.46 11.21L22.46 11.21Q22.76 11.61 23.37 11.61L23.37 11.61Q23.97 11.61 24.39 11.21L24.39 11.21Q24.61 11.00 24.75 10.70L24.75 10.70Q24.81 10.58 24.90 10.58Q24.99 10.58 25.05 10.74Q25.10 10.89 25.10 10.98ZM30.07 7.85L30.00 8.92L30.06 9.41Q30.06 9.67 29.55 9.67L29.55 9.67Q28.53 9.67 28.53 8.90L28.53 8.90Q28.53 8.72 28.63 8.40Q28.73 8.08 28.73 7.84Q28.73 7.60 28.59 7.43Q28.45 7.25 28.18 7.25Q27.92 7.25 27.73 7.44Q27.54 7.63 27.50 7.83L27.50 7.83L27.44 8.02Q27.36 8.46 27.36 9.47Q27.36 10.49 27.38 11.07Q27.41 11.65 27.44 11.87Q27.47 12.08 27.47 12.12L27.47 12.12Q27.47 12.47 27.03 12.69Q26.60 12.91 26.17 12.91Q25.73 12.91 25.73 12.73L25.73 12.73L25.80 12.29Q26.00 11.07 26.00 9.11Q26.00 7.15 25.86 6.45L25.86 6.45Q25.86 6.29 26.15 6.29L26.15 6.29Q26.91 6.29 27.16 6.80L27.16 6.80Q27.17 6.86 27.21 6.86Q27.24 6.86 27.40 6.73L27.40 6.73Q27.86 6.36 28.49 6.36L28.49 6.36Q28.88 6.36 29.27 6.51L29.27 6.51Q30.07 6.83 30.07 7.85L30.07 7.85ZM32.17 2.80L32.17 2.80L34.30 2.87Q35.03 2.87 35.49 2.81L35.49 2.81L35.64 2.79Q35.88 2.79 35.88 3.32Q35.88 3.85 35.70 4.26L35.70 4.26Q33.21 8.25 33.21 11.63L33.21 11.63Q33.21 12.29 33.31 12.47Q33.42 12.66 33.42 12.67L33.42 12.67Q33.42 12.92 32.65 12.92L32.65 12.92Q31.28 12.92 31.28 12.40L31.28 12.40Q31.28 10.47 32.81 7.56Q34.34 4.65 34.34 4.42L34.34 4.42Q34.34 4.31 34.23 4.28L34.23 4.28Q33.75 4.26 33.38 4.26Q33.01 4.26 32.55 4.35Q32.09 4.44 31.82 4.58L31.82 4.58Q31.29 4.84 31.15 5.05L31.15 5.05L31.08 5.15Q30.98 5.32 30.87 5.32L30.87 5.32Q30.70 5.32 30.70 5.07L30.70 5.07Q30.70 2.97 31.18 2.87L31.18 2.87Q31.46 2.80 32.17 2.80ZM36.83 8.65L36.83 8.65L38.00 8.68Q38.61 8.68 38.96 8.67L38.96 8.67Q39.00 7.52 39.00 6.65L39.00 6.65L38.99 5.28Q38.99 5.10 38.89 5.10L38.89 5.10L38.72 5.18Q38.29 5.66 37.81 6.43Q37.32 7.20 37.06 7.74L37.06 7.74L36.79 8.27Q36.74 8.40 36.74 8.53Q36.74 8.65 36.83 8.65ZM38.89 10.11L38.89 10.11L37.69 10.09L35.17 10.12Q34.86 10.12 34.86 9.84L34.86 9.84L34.89 9.69Q35.78 7.48 37.90 4.66L37.90 4.66Q38.57 3.75 39.14 3.12L39.14 3.12L39.33 2.94Q39.69 2.56 40.40 2.56L40.40 2.56Q40.78 2.56 40.78 2.79L40.78 2.79Q40.56 4.76 40.56 6.80L40.56 6.80L40.56 8.58Q40.74 8.57 40.95 8.55L40.95 8.55L41.27 8.53Q41.37 8.53 41.40 8.53L41.40 8.53Q41.51 8.53 41.51 8.60L41.51 8.60Q41.51 8.83 41.27 9.37Q41.03 9.90 40.78 10.01L40.78 10.01L40.59 10.05Q40.61 11.63 40.73 12.18L40.73 12.18Q40.73 12.54 40.17 12.71Q39.62 12.88 39.12 12.88Q38.63 12.88 38.63 12.66L38.63 12.66Q38.63 12.63 38.71 12.10Q38.79 11.56 38.89 10.11ZM46.73 4.42L46.73 4.42L45.35 4.33Q44.04 4.33 43.99 4.68L43.99 4.68Q43.79 5.60 43.76 6.31L43.76 6.31Q43.76 6.45 43.86 6.45L43.86 6.45Q43.89 6.45 43.95 6.43L43.95 6.43Q44.45 6.16 45.11 6.16Q45.77 6.16 46.29 6.36Q46.82 6.55 47.11 6.89Q47.40 7.22 47.61 7.57Q47.81 7.91 47.89 8.33L47.89 8.33Q48.01 9.00 48.01 9.45L48.01 9.45Q48.01 10.93 47.20 11.92Q46.40 12.91 44.91 12.91L44.91 12.91L44.87 12.91Q43.57 12.91 42.76 12.40Q41.96 11.90 41.96 10.88L41.96 10.88Q41.96 10.39 42.10 10.02Q42.25 9.66 42.46 9.49L42.46 9.49Q42.90 9.14 43.25 9.11L43.25 9.11L43.39 9.10Q43.71 9.10 44.00 9.25Q44.30 9.39 44.30 9.69L44.30 9.69Q44.30 9.80 44.14 9.92Q43.99 10.04 43.88 10.27Q43.76 10.50 43.75 10.65L43.75 10.65L43.72 10.82Q43.72 11.20 43.85 11.46Q43.97 11.72 44.17 11.80L44.17 11.80Q44.49 11.96 44.72 11.96L44.72 11.96Q45.21 11.96 45.53 11.63Q45.86 11.30 45.99 10.79L45.99 10.79Q46.17 10.01 46.17 9.58L46.17 9.58Q46.17 7.18 44.83 7.18L44.83 7.18Q44.00 7.18 43.50 7.94L43.50 7.94Q43.43 8.18 42.90 8.18Q42.36 8.18 42.36 7.95L42.36 7.95L42.36 7.90Q42.67 6.09 42.87 3.02L42.87 3.02Q42.91 2.90 43.06 2.87L43.06 2.87Q43.64 2.84 44.35 2.84L44.35 2.84L45.96 2.87Q47.25 2.87 47.52 2.76L47.52 2.76Q47.57 2.73 47.64 2.73L47.64 2.73Q47.78 2.73 47.78 2.87L47.78 2.87Q47.78 3.26 47.45 3.84Q47.12 4.42 46.73 4.42Z"></path></g><!----><!----></svg>